<svg id="Capa_1" enable-background="new 0 0 511.86 511.86" height="512" viewBox="0 0 511.86 511.86" width="512" xmlns="http://www.w3.org/2000/svg"><g><path d="m480.93 181h-120v-106c0-41.355-33.645-75-75-75h-180c-41.355 0-75 33.645-75 75v136h450zm-150 0h-270v-106c0-24.813 20.187-45 45-45h180c24.813 0 45 20.187 45 45z"/><path d="m150.93 121h90v30h-90z"/><path d="m191.62 510.567 4.31 1.293 4.31-1.293c66.131-19.839 116.15-67.347 141.726-125.453 13.201 21.508 36.933 35.886 63.964 35.886h45v-45c0-24.508-11.818-46.305-30.052-60 18.234-13.695 30.052-35.492 30.052-60v-15h-45c-24.484 0-46.262 11.796-59.959 30h-315.041v23.396c0 98.857 64.486 187.31 160.69 216.171zm229.31-134.567v15h-15c-24.813 0-45-20.187-45-45v-15h15c24.813 0 45 20.187 45 45zm-15-105.01h12.43c-6.191 17.461-22.874 30.01-42.43 30.01h-12.43c6.191-17.461 22.874-30.01 42.43-30.01zm-75.113 30.01c-2.802 81.576-57.267 154.187-134.887 179.484-77.619-25.297-132.084-97.908-134.887-179.484z"/></g></svg>