<svg height="512pt" viewBox="-68 0 512 512" width="512pt" xmlns="http://www.w3.org/2000/svg"><path d="m42.667969 384c6.914062-.039062 13.71875-1.765625 19.8125-5.035156 8.78125 12.421875 19.359375 23.472656 31.386719 32.785156v74.648438c0 14.140624 11.460937 25.601562 25.597656 25.601562h34.136718c14.136719 0 25.597657-11.460938 25.597657-25.601562v-42.9375c2.832031.152343 5.675781.273437 8.535156.273437s5.699219-.121094 8.53125-.273437v42.9375c0 14.140624 11.460937 25.601562 25.601563 25.601562h34.132812c14.136719 0 25.601562-11.460938 25.601562-25.601562v-74.648438c12.03125-9.316406 22.609376-20.371094 31.394532-32.800781 6.085937 3.28125 12.886718 5.015625 19.804687 5.050781 23.550781-.027344 42.636719-19.113281 42.664063-42.667969v-85.332031c-.035156-32.972656-26.757813-59.695312-59.730469-59.734375h-6.597656c-10.144531-13.089844-22.339844-24.453125-36.113281-33.65625 0-.160156.042968-.3125.042968-.476563 0-7.257812-2.308594-14.328124-6.597656-20.1875 4.417969-12.714843 6.648438-26.085937 6.597656-39.546874 0-3.019532-.160156-5.972657-.375-8.957032 40.53125-4.234375 51.574219-39.894531 51.574219-59.308594 0-4.710937-3.820313-8.53125-8.53125-8.53125-21.808594 1.492188-43.527344 4.128907-65.058594 7.898438-14.519531-20.472656-37.851562-32.890625-62.941406-33.5-25.09375.609375-48.425781 13.027344-62.941406 33.5-21.535157-3.769531-43.25-6.40625-65.058594-7.898438-4.714844 0-8.535156 3.820313-8.535156 8.53125 0 19.414063 11.042969 55.074219 51.578125 59.308594-.214844 2.960938-.378906 5.972656-.378906 8.957032-.046876 13.464843 2.1875 26.84375 6.605468 39.5625-4.308594 5.839843-6.625 12.914062-6.605468 20.171874 0 .164063 0 .316407.054687.476563-13.777344 9.199219-25.976563 20.566406-36.125 33.65625h-6.59375c-32.976563.039063-59.6953125 26.761719-59.734375 59.734375v85.332031c-.0117188 11.320313 4.480469 22.179688 12.484375 30.183594s18.863281 12.496094 30.183594 12.484375zm119.464843 102.398438c0 4.714843-3.820312 8.535156-8.53125 8.535156h-8.535156v-17.066406c0-4.714844-3.820312-8.535157-8.53125-8.535157-4.714844 0-8.535156 3.820313-8.535156 8.535157v17.066406h-8.535156c-4.710938 0-8.53125-3.820313-8.53125-8.535156v-63.144532c15.828125 9.128906 33.171875 15.335938 51.199218 18.320313zm102.402344 0c0 4.714843-3.824218 8.535156-8.535156 8.535156h-8.535156v-17.066406c0-4.714844-3.820313-8.535157-8.53125-8.535157-4.714844 0-8.535156 3.820313-8.535156 8.535157v17.066406h-8.53125c-4.714844 0-8.535157-3.820313-8.535157-8.535156v-44.851563c18.027344-2.972656 35.371094-9.171875 51.203125-18.292969zm41.617188-443.195313c-2.589844 18.21875-17.59375 32.125-35.953125 33.324219-2.046875-9.480469-5.300781-18.65625-9.683594-27.308594 12.441406-1.925781 32.175781-4.84375 45.636719-6.015625zm-118.417969-26.136719c37.640625 0 68.265625 38.28125 68.265625 85.332032.070312 13.050781-2.382812 25.988281-7.226562 38.101562-1.3125 3.253906-.5 6.976562 2.046874 9.386719 3.351563 3.1875 5.226563 7.625 5.179688 12.246093 0 9.425782-7.640625 17.066407-17.066406 17.066407h-102.398438c-9.425781 0-17.070312-7.640625-17.070312-17.066407.039062-4.761718 2.03125-9.296874 5.503906-12.550781 2.300781-2.429687 2.96875-5.980469 1.707031-9.082031-4.835937-12.117188-7.285156-25.054688-7.210937-38.101562 0-47.050782 30.628906-85.332032 68.269531-85.332032zm-118.46875 26.128906c13.472656 1.1875 33.226563 4.097657 45.6875 6.023438-4.386719 8.648438-7.644531 17.828125-9.6875 27.308594-18.421875-1.078125-33.507813-15.046875-36-33.332032zm-52.199219 212.804688c.027344-23.550781 19.113282-42.636719 42.667969-42.667969h10.664063c1.242187-.019531 2.460937-.3125 3.578124-.851562.296876-.144531.535157-.382813.851563-.554688.777344-.457031 1.476563-1.03125 2.074219-1.707031.128906-.152344.308594-.203125.425781-.359375 8.433594-11.523437 18.621094-21.652344 30.191406-30.019531 6.144531 10.164062 17.140625 16.386718 29.015625 16.425781h102.398438c11.917968.085937 22.980468-6.164063 29.054687-16.417969 11.566407 8.359375 21.75 18.476563 30.183594 29.988282.121094.152343.296875.203124.425781.355468.597656.675782 1.296875 1.253906 2.074219 1.707032.28125.171874.519531.410156.851563.554687 1.117187.542969 2.335937.832031 3.578124.855469h10.632813c23.550781.027344 42.636719 19.113281 42.664063 42.664062v85.359375c-.042969 10.8125-6.875 20.429688-17.066407 24.03125v-6.964843c0-4.710938-3.820312-8.53125-8.53125-8.53125-4.714843 0-8.535156 3.820312-8.535156 8.53125v7c-3.128906-1.148438-6.019531-2.863282-8.53125-5.054688-.347656-.257812-.675781-.542969-.980469-.851562-4.824218-4.816407-7.539062-11.34375-7.554687-18.160157v-85.332031c0-4.710938-3.820313-8.535156-8.53125-8.535156-4.714844 0-8.535157 3.824218-8.535157 8.535156v85.332031c.058594 9.742188 3.464844 19.164063 9.644532 26.695313-21.9375 31.847656-56.445313 52.796875-94.824219 57.5625-.050781 0-.101563 0-.152344 0s-.28125.078125-.425781.085937c-11.054688 1.367188-22.230469 1.367188-33.28125 0-.144531 0-.273438-.085937-.425781-.085937-.15625 0-.105469 0-.15625 0-38.316407-4.761719-72.78125-25.660156-94.71875-57.4375 6.1875-7.566406 9.558593-17.042969 9.539062-26.820313v-85.332031c0-4.710938-3.820312-8.535156-8.53125-8.535156-4.714843 0-8.535156 3.824218-8.535156 8.535156v85.332031c.039063 7.496094-3.273437 14.617188-9.027344 19.421875-2.355469 2.035156-5.085937 3.585938-8.039062 4.566406v-6.921874c0-4.710938-3.820313-8.53125-8.53125-8.53125-4.714844 0-8.535157 3.820312-8.535157 8.53125v6.828124c-3.574218-1.148437-6.835937-3.097656-9.539062-5.699218-4.820312-4.828125-7.527344-11.371094-7.527344-18.195313zm0 0"/><path d="m153.601562 162.132812h68.265626c4.710937 0 8.53125-3.820312 8.53125-8.53125 0-4.714843-3.820313-8.535156-8.53125-8.535156h-8.535157v-8.53125c0-4.714844-3.820312-8.535156-8.53125-8.535156-4.714843 0-8.535156 3.820312-8.535156 8.535156v8.53125h-17.066406v-8.53125c0-4.714844-3.820313-8.535156-8.53125-8.535156-4.714844 0-8.535157 3.820312-8.535157 8.535156v8.53125h-8.53125c-4.714843 0-8.535156 3.820313-8.535156 8.535156 0 4.710938 3.820313 8.53125 8.535156 8.53125zm0 0"/><path d="m162.132812 93.867188c4.714844 0 8.535157-3.820313 8.535157-8.535157v-8.53125c0-4.714843-3.820313-8.535156-8.535157-8.535156-4.710937 0-8.53125 3.820313-8.53125 8.535156v8.53125c0 4.714844 3.820313 8.535157 8.53125 8.535157zm0 0"/><path d="m213.332031 93.867188c4.714844 0 8.535157-3.820313 8.535157-8.535157v-8.53125c0-4.714843-3.820313-8.535156-8.535157-8.535156-4.710937 0-8.53125 3.820313-8.53125 8.535156v8.53125c0 4.714844 3.820313 8.535157 8.53125 8.535157zm0 0"/><path d="m185.121094 117.078125c2.699218-2.5 4.15625-1.066406 5.121094-.113281 3.347656 3.234375 8.671874 3.1875 11.960937-.101563 3.292969-3.292969 3.339844-8.613281.105469-11.964843-3.78125-4.011719-9.050782-6.289063-14.566406-6.289063-5.515626 0-10.785157 2.277344-14.566407 6.289063-3.269531 3.277343-3.289062 8.574218-.050781 11.878906 3.261719 3.328125 8.574219 3.457031 11.996094.300781zm0 0"/><path d="m170.667969 366.933594c0 4.710937 3.820312 8.53125 8.53125 8.53125 0 4.714844 3.820312 8.535156 8.535156 8.535156 4.710937 0 8.53125-3.820312 8.53125-8.535156 4.714844 0 8.535156-3.820313 8.535156-8.53125 0-4.714844-3.820312-8.535156-8.535156-8.535156 0-4.710938-3.820313-8.53125-8.53125-8.53125-4.714844 0-8.535156 3.820312-8.535156 8.53125-4.710938 0-8.53125 3.820312-8.53125 8.535156zm0 0"/><path d="m108.867188 272.8125c11.433593 2.636719 23.125 3.992188 34.859374 4.042969 10.042969.152343 20.046876-1.289063 29.636719-4.265625 4.476563-1.492188 6.898438-6.328125 5.410157-10.804688-1.488282-4.476562-6.324219-6.898437-10.804688-5.410156-7.414062 2.304688-15.136719 3.457031-22.902344 3.414062v-3.789062c0-4.710938-3.820312-8.535156-8.53125-8.535156-4.714844 0-8.535156 3.824218-8.535156 8.535156v2.816406c-5.046875-.578125-10.058594-1.433594-15.011719-2.558594-4.511719-.992187-8.992187 1.789063-10.109375 6.269532-1.117187 4.484375 1.539063 9.042968 5.988282 10.285156zm0 0"/><path d="m202.734375 272.8125c11.433594 2.636719 23.125 3.992188 34.859375 4.042969 10.042969.152343 20.042969-1.289063 29.636719-4.265625 2.894531-.964844 5.058593-3.398438 5.671875-6.390625.613281-2.988281-.414063-6.078125-2.695313-8.105469-2.285156-2.027344-5.472656-2.683594-8.371093-1.71875-4.664063 1.515625-9.484376 2.503906-14.371094 2.953125v-3.328125c0-4.710938-3.820313-8.535156-8.53125-8.535156-4.714844 0-8.535156 3.824218-8.535156 8.535156v3.574219c-7.921876-.46875-15.796876-1.578125-23.542969-3.316407-4.511719-.992187-8.992188 1.789063-10.109375 6.269532-1.117188 4.484375 1.539062 9.042968 5.988281 10.285156zm0 0"/></svg>